<svg xmlns="http://www.w3.org/2000/svg" width="391.45" height="35" viewBox="0 0 391.45 35"><rect class="svg__rect" x="0" y="0" width="161.3" height="35" fill="#2EC959"/><rect class="svg__rect" x="159.3" y="0" width="232.14999999999998" height="35" fill="#55B329"/><path class="svg__text" d="M15.69 22L14.22 22L14.22 13.47L16.14 13.47L18.60 20.01L21.06 13.47L22.97 13.47L22.97 22L21.49 22L21.49 19.19L21.64 15.43L19.12 22L18.06 22L15.55 15.43L15.69 19.19L15.69 22ZM27.44 18.00L27.44 18.00L27.44 17.52Q27.44 16.28 27.88 15.32Q28.33 14.37 29.13 13.86Q29.94 13.35 30.98 13.35Q32.02 13.35 32.83 13.85Q33.64 14.35 34.07 15.29Q34.51 16.23 34.52 17.48L34.52 17.48L34.52 17.96Q34.52 19.21 34.09 20.16Q33.65 21.10 32.85 21.61Q32.04 22.12 30.99 22.12L30.99 22.12Q29.96 22.12 29.14 21.61Q28.33 21.10 27.89 20.17Q27.45 19.23 27.44 18.00ZM28.92 17.46L28.92 17.96Q28.92 19.36 29.47 20.13Q30.02 20.90 30.99 20.90L30.99 20.90Q31.98 20.90 32.51 20.15Q33.04 19.40 33.04 17.96L33.04 17.96L33.04 17.51Q33.04 16.09 32.50 15.34Q31.97 14.58 30.98 14.58L30.98 14.58Q30.02 14.58 29.48 15.33Q28.94 16.09 28.92 17.46L28.92 17.46ZM41.44 22L38.98 22L38.98 13.47L41.50 13.47Q42.64 13.47 43.51 13.97Q44.39 14.48 44.87 15.40Q45.35 16.33 45.35 17.52L45.35 17.52L45.35 17.95Q45.35 19.16 44.86 20.08Q44.38 21.00 43.49 21.50Q42.59 22 41.44 22L41.44 22ZM40.47 14.66L40.47 20.82L41.43 20.82Q42.60 20.82 43.22 20.09Q43.85 19.36 43.86 17.99L43.86 17.99L43.86 17.52Q43.86 16.13 43.26 15.40Q42.65 14.66 41.50 14.66L41.50 14.66L40.47 14.66ZM55.39 22L49.81 22L49.81 13.47L55.35 13.47L55.35 14.66L51.30 14.66L51.30 17.02L54.80 17.02L54.80 18.19L51.30 18.19L51.30 20.82L55.39 20.82L55.39 22ZM64.94 22L59.59 22L59.59 13.47L61.07 13.47L61.07 20.82L64.94 20.82L64.94 22ZM78.15 22L75.04 22L75.04 13.47L77.97 13.47Q79.41 13.47 80.17 14.05Q80.93 14.63 80.93 15.78L80.93 15.78Q80.93 16.36 80.61 16.83Q80.29 17.30 79.68 17.56L79.68 17.56Q80.38 17.75 80.75 18.26Q81.13 18.78 81.13 19.51L81.13 19.51Q81.13 20.71 80.36 21.36Q79.59 22 78.15 22L78.15 22ZM76.53 18.15L76.53 20.82L78.17 20.82Q78.87 20.82 79.26 20.47Q79.65 20.13 79.65 19.51L79.65 19.51Q79.65 18.18 78.30 18.15L78.30 18.15L76.53 18.15ZM76.53 14.66L76.53 17.06L77.98 17.06Q78.67 17.06 79.06 16.75Q79.45 16.43 79.45 15.86L79.45 15.86Q79.45 15.23 79.09 14.95Q78.73 14.66 77.97 14.66L77.97 14.66L76.53 14.66ZM85.47 19.16L85.47 19.16L85.47 13.47L86.94 13.47L86.94 19.18Q86.94 20.03 87.38 20.48Q87.81 20.93 88.65 20.93L88.65 20.93Q90.37 20.93 90.37 19.13L90.37 19.13L90.37 13.47L91.84 13.47L91.84 19.17Q91.84 20.53 90.97 21.32Q90.10 22.12 88.65 22.12L88.65 22.12Q87.19 22.12 86.33 21.33Q85.47 20.55 85.47 19.16ZM97.98 22L96.50 22L96.50 13.47L97.98 13.47L97.98 22ZM108.14 22L102.79 22L102.79 13.47L104.27 13.47L104.27 20.82L108.14 20.82L108.14 22ZM114.72 22L112.27 22L112.27 13.47L114.79 13.47Q115.92 13.47 116.79 13.97Q117.67 14.48 118.15 15.40Q118.63 16.33 118.63 17.52L118.63 17.52L118.63 17.95Q118.63 19.16 118.15 20.08Q117.66 21.00 116.77 21.50Q115.88 22 114.72 22L114.72 22ZM113.75 14.66L113.75 20.82L114.72 20.82Q115.88 20.82 116.51 20.09Q117.13 19.36 117.14 17.99L117.14 17.99L117.14 17.52Q117.14 16.13 116.54 15.40Q115.94 14.66 114.79 14.66L114.79 14.66L113.75 14.66ZM124.66 22L123.18 22L123.18 13.47L124.66 13.47L124.66 22ZM130.95 22L129.47 22L129.47 13.47L130.95 13.47L134.77 19.54L134.77 13.47L136.24 13.47L136.24 22L134.76 22L130.95 15.95L130.95 22ZM140.73 18.13L140.73 18.13L140.73 17.46Q140.73 15.53 141.66 14.44Q142.58 13.35 144.24 13.35L144.24 13.35Q145.67 13.35 146.50 14.05Q147.34 14.76 147.51 16.08L147.51 16.08L146.06 16.08Q145.81 14.54 144.27 14.54L144.27 14.54Q143.28 14.54 142.76 15.26Q142.24 15.98 142.22 17.37L142.22 17.37L142.22 18.02Q142.22 19.40 142.80 20.17Q143.39 20.93 144.42 20.93L144.42 20.93Q145.56 20.93 146.04 20.42L146.04 20.42L146.04 18.75L144.28 18.75L144.28 17.62L147.52 17.62L147.52 20.89Q147.06 21.50 146.23 21.81Q145.41 22.12 144.37 22.12L144.37 22.12Q143.30 22.12 142.47 21.63Q141.65 21.14 141.20 20.24Q140.75 19.33 140.73 18.13Z" fill="#FFFFFF"/><path class="svg__text" d="M179.87 22L173.49 22L173.49 13.60L175.87 13.60L175.87 20.11L179.87 20.11L179.87 22ZM183.86 17.80L183.86 17.80Q183.86 16.55 184.47 15.55Q185.07 14.56 186.14 14.00Q187.20 13.43 188.53 13.43L188.53 13.43Q189.86 13.43 190.92 14.00Q191.99 14.56 192.59 15.55Q193.20 16.55 193.20 17.80L193.20 17.80Q193.20 19.05 192.59 20.04Q191.99 21.04 190.93 21.60Q189.86 22.17 188.53 22.17L188.53 22.17Q187.20 22.17 186.14 21.60Q185.07 21.04 184.47 20.04Q183.86 19.05 183.86 17.80ZM186.26 17.80L186.26 17.80Q186.26 18.51 186.56 19.05Q186.86 19.60 187.38 19.90Q187.90 20.20 188.53 20.20L188.53 20.20Q189.17 20.20 189.68 19.90Q190.20 19.60 190.50 19.05Q190.80 18.51 190.80 17.80L190.80 17.80Q190.80 17.09 190.50 16.54Q190.20 16 189.68 15.70Q189.17 15.40 188.53 15.40L188.53 15.40Q187.89 15.40 187.38 15.70Q186.86 16 186.56 16.54Q186.26 17.09 186.26 17.80ZM197.50 17.80L197.50 17.80Q197.50 16.54 198.10 15.54Q198.69 14.55 199.76 13.99Q200.83 13.43 202.18 13.43L202.18 13.43Q203.35 13.43 204.29 13.83Q205.23 14.22 205.85 14.97L205.85 14.97L204.34 16.33Q203.49 15.40 202.32 15.40L202.32 15.40Q202.30 15.40 202.30 15.40L202.30 15.40Q201.22 15.40 200.56 16.06Q199.90 16.71 199.90 17.80L199.90 17.80Q199.90 18.50 200.20 19.04Q200.50 19.59 201.04 19.89Q201.58 20.20 202.28 20.20L202.28 20.20Q202.96 20.20 203.56 19.93L203.56 19.93L203.56 17.62L205.66 17.62L205.66 21.10Q204.94 21.61 204.00 21.89Q203.07 22.17 202.13 22.17L202.13 22.17Q200.81 22.17 199.75 21.61Q198.69 21.05 198.10 20.05Q197.50 19.06 197.50 17.80ZM213.03 22L210.65 22L210.65 13.60L213.03 13.60L213.03 22ZM217.61 21.24L217.61 21.24L218.39 19.49Q218.96 19.86 219.70 20.09Q220.44 20.32 221.17 20.32L221.17 20.32Q222.53 20.32 222.54 19.64L222.54 19.64Q222.54 19.28 222.15 19.11Q221.76 18.93 220.89 18.74L220.89 18.74Q219.94 18.53 219.31 18.30Q218.67 18.06 218.22 17.55Q217.76 17.03 217.76 16.16L217.76 16.16Q217.76 15.39 218.18 14.77Q218.60 14.15 219.43 13.79Q220.27 13.43 221.48 13.43L221.48 13.43Q222.30 13.43 223.11 13.62Q223.91 13.80 224.53 14.17L224.53 14.17L223.80 15.93Q222.60 15.28 221.46 15.28L221.46 15.28Q220.76 15.28 220.43 15.49Q220.11 15.70 220.11 16.04L220.11 16.04Q220.11 16.37 220.49 16.54Q220.88 16.71 221.73 16.89L221.73 16.89Q222.69 17.10 223.32 17.33Q223.95 17.56 224.41 18.07Q224.87 18.58 224.87 19.46L224.87 19.46Q224.87 20.21 224.46 20.83Q224.04 21.44 223.20 21.80Q222.36 22.17 221.15 22.17L221.15 22.17Q220.13 22.17 219.17 21.92Q218.21 21.67 217.61 21.24ZM231.24 15.48L228.66 15.48L228.66 13.60L236.18 13.60L236.18 15.48L233.62 15.48L233.62 22L231.24 22L231.24 15.48ZM242.93 22L240.55 22L240.55 13.60L242.93 13.60L242.93 22ZM247.68 17.80L247.68 17.80Q247.68 16.54 248.28 15.54Q248.87 14.55 249.93 13.99Q250.98 13.43 252.30 13.43L252.30 13.43Q253.45 13.43 254.37 13.84Q255.30 14.25 255.91 15.02L255.91 15.02L254.40 16.39Q253.59 15.40 252.42 15.40L252.42 15.40Q251.73 15.40 251.20 15.70Q250.67 16 250.37 16.54Q250.08 17.09 250.08 17.80L250.08 17.80Q250.08 18.51 250.37 19.05Q250.67 19.60 251.20 19.90Q251.73 20.20 252.42 20.20L252.42 20.20Q253.59 20.20 254.40 19.22L254.40 19.22L255.91 20.58Q255.30 21.35 254.38 21.76Q253.45 22.17 252.30 22.17L252.30 22.17Q250.98 22.17 249.93 21.61Q248.87 21.05 248.28 20.05Q247.68 19.06 247.68 17.80ZM269.80 22L267.42 22L267.42 13.60L271.26 13.60Q272.41 13.60 273.24 13.98Q274.08 14.35 274.54 15.06Q275.00 15.76 275.00 16.71L275.00 16.71Q275.00 17.62 274.57 18.30Q274.14 18.98 273.35 19.36L273.35 19.36L275.16 22L272.62 22L271.09 19.77L269.80 19.77L269.80 22ZM269.80 15.47L269.80 17.93L271.12 17.93Q271.85 17.93 272.22 17.61Q272.59 17.29 272.59 16.71L272.59 16.71Q272.59 16.12 272.22 15.79Q271.85 15.47 271.12 15.47L271.12 15.47L269.80 15.47ZM286.53 22L279.78 22L279.78 13.60L286.37 13.60L286.37 15.44L282.14 15.44L282.14 16.85L285.87 16.85L285.87 18.63L282.14 18.63L282.14 20.17L286.53 20.17L286.53 22ZM290.90 17.80L290.90 17.80Q290.90 16.54 291.50 15.54Q292.10 14.55 293.17 13.99Q294.24 13.43 295.58 13.43L295.58 13.43Q296.76 13.43 297.69 13.83Q298.63 14.22 299.25 14.97L299.25 14.97L297.74 16.33Q296.90 15.40 295.72 15.40L295.72 15.40Q295.71 15.40 295.70 15.40L295.70 15.40Q294.62 15.40 293.96 16.06Q293.30 16.71 293.30 17.80L293.30 17.80Q293.30 18.50 293.60 19.04Q293.90 19.59 294.44 19.89Q294.98 20.20 295.68 20.20L295.68 20.20Q296.36 20.20 296.96 19.93L296.96 19.93L296.96 17.62L299.06 17.62L299.06 21.10Q298.34 21.61 297.40 21.89Q296.47 22.17 295.53 22.17L295.53 22.17Q294.21 22.17 293.16 21.61Q292.10 21.05 291.50 20.05Q290.90 19.06 290.90 17.80ZM306.43 22L304.05 22L304.05 13.60L307.90 13.60Q309.04 13.60 309.88 13.98Q310.71 14.35 311.17 15.06Q311.63 15.76 311.63 16.71L311.63 16.71Q311.63 17.62 311.20 18.30Q310.77 18.98 309.98 19.36L309.98 19.36L311.79 22L309.25 22L307.73 19.77L306.43 19.77L306.43 22ZM306.43 15.47L306.43 17.93L307.75 17.93Q308.48 17.93 308.85 17.61Q309.23 17.29 309.23 16.71L309.23 16.71Q309.23 16.12 308.85 15.79Q308.48 15.47 307.75 15.47L307.75 15.47L306.43 15.47ZM323.16 22L316.42 22L316.42 13.60L323.01 13.60L323.01 15.44L318.77 15.44L318.77 16.85L322.50 16.85L322.50 18.63L318.77 18.63L318.77 20.17L323.16 20.17L323.16 22ZM327.38 21.24L327.38 21.24L328.16 19.49Q328.72 19.86 329.46 20.09Q330.21 20.32 330.93 20.32L330.93 20.32Q332.29 20.32 332.30 19.64L332.30 19.64Q332.30 19.28 331.91 19.11Q331.52 18.93 330.65 18.74L330.65 18.74Q329.70 18.53 329.07 18.30Q328.43 18.06 327.98 17.55Q327.53 17.03 327.53 16.16L327.53 16.16Q327.53 15.39 327.94 14.77Q328.36 14.15 329.20 13.79Q330.03 13.43 331.24 13.43L331.24 13.43Q332.07 13.43 332.87 13.62Q333.68 13.80 334.29 14.17L334.29 14.17L333.56 15.93Q332.36 15.28 331.23 15.28L331.23 15.28Q330.52 15.28 330.20 15.49Q329.87 15.70 329.87 16.04L329.87 16.04Q329.87 16.37 330.26 16.54Q330.64 16.71 331.49 16.89L331.49 16.89Q332.45 17.10 333.08 17.33Q333.71 17.56 334.18 18.07Q334.64 18.58 334.64 19.46L334.64 19.46Q334.64 20.21 334.22 20.83Q333.80 21.44 332.96 21.80Q332.12 22.17 330.92 22.17L330.92 22.17Q329.90 22.17 328.94 21.92Q327.98 21.67 327.38 21.24ZM338.63 21.24L338.63 21.24L339.41 19.49Q339.97 19.86 340.71 20.09Q341.46 20.32 342.18 20.32L342.18 20.32Q343.54 20.32 343.55 19.64L343.55 19.64Q343.55 19.28 343.16 19.11Q342.77 18.93 341.90 18.74L341.90 18.74Q340.95 18.53 340.32 18.30Q339.68 18.06 339.23 17.55Q338.78 17.03 338.78 16.16L338.78 16.16Q338.78 15.39 339.19 14.77Q339.61 14.15 340.45 13.79Q341.28 13.43 342.49 13.43L342.49 13.43Q343.32 13.43 344.12 13.62Q344.93 13.80 345.54 14.17L345.54 14.17L344.81 15.93Q343.61 15.28 342.48 15.28L342.48 15.28Q341.77 15.28 341.45 15.49Q341.12 15.70 341.12 16.04L341.12 16.04Q341.12 16.37 341.51 16.54Q341.89 16.71 342.74 16.89L342.74 16.89Q343.70 17.10 344.33 17.33Q344.96 17.56 345.43 18.07Q345.89 18.58 345.89 19.46L345.89 19.46Q345.89 20.21 345.47 20.83Q345.05 21.44 344.21 21.80Q343.37 22.17 342.17 22.17L342.17 22.17Q341.15 22.17 340.19 21.92Q339.23 21.67 338.63 21.24ZM352.84 22L350.46 22L350.46 13.60L352.84 13.60L352.84 22ZM357.59 17.80L357.59 17.80Q357.59 16.55 358.19 15.55Q358.80 14.56 359.86 14.00Q360.92 13.43 362.25 13.43L362.25 13.43Q363.58 13.43 364.65 14.00Q365.71 14.56 366.32 15.55Q366.92 16.55 366.92 17.80L366.92 17.80Q366.92 19.05 366.32 20.04Q365.71 21.04 364.65 21.60Q363.59 22.17 362.25 22.17L362.25 22.17Q360.92 22.17 359.86 21.60Q358.80 21.04 358.19 20.04Q357.59 19.05 357.59 17.80ZM359.99 17.80L359.99 17.80Q359.99 18.51 360.29 19.05Q360.59 19.60 361.11 19.90Q361.62 20.20 362.25 20.20L362.25 20.20Q362.89 20.20 363.41 19.90Q363.92 19.60 364.22 19.05Q364.52 18.51 364.52 17.80L364.52 17.80Q364.52 17.09 364.22 16.54Q363.92 16 363.41 15.70Q362.89 15.40 362.25 15.40L362.25 15.40Q361.61 15.40 361.10 15.70Q360.59 16 360.29 16.54Q359.99 17.09 359.99 17.80ZM373.98 22L371.65 22L371.65 13.60L373.61 13.60L377.32 18.07L377.32 13.60L379.64 13.60L379.64 22L377.69 22L373.98 17.52L373.98 22Z" fill="#FFFFFF" x="172.3"/></svg>